<svg width="32" height="32" viewBox="0 0 32 32" fill="none" xmlns="http://www.w3.org/2000/svg">
  <rect width="32" height="32" rx="6" fill="#0A0E14"/>
  <!-- Chain link -->
  <g transform="translate(6, 8)">
    <!-- Left link -->
    <path d="M4 8C4 5.79086 5.79086 4 8 4C9.10457 4 10.1046 4.44772 10.8284 5.17157L8 8L10.8284 10.8284C10.1046 11.5523 9.10457 12 8 12C5.79086 12 4 10.2091 4 8Z" stroke="#00D9FF" stroke-width="1.5" stroke-linecap="round" stroke-linejoin="round"/>
    <!-- Right link -->
    <path d="M12 8C12 10.2091 10.2091 12 8 12C6.89543 12 5.89543 11.5523 5.17157 10.8284L8 8L5.17157 5.17157C5.89543 4.44772 6.89543 4 8 4C10.2091 4 12 5.79086 12 8Z" stroke="#BD93F9" stroke-width="1.5" stroke-linecap="round" stroke-linejoin="round" transform="translate(8, 0)"/>
  </g>
</svg>
