<svg width="200" height="48" viewBox="0 0 200 48" fill="none" xmlns="http://www.w3.org/2000/svg">
  <!-- Chain link icon -->
  <g transform="translate(0, 8)">
    <!-- Left link -->
    <path d="M12 16C12 11.5817 15.5817 8 20 8C22.2091 8 24.2091 8.8954 25.6569 10.3431L20 16L25.6569 21.6569C24.2091 23.1046 22.2091 24 20 24C15.5817 24 12 20.4183 12 16Z" stroke="#00D9FF" stroke-width="2.5" stroke-linecap="round" stroke-linejoin="round"/>
    <!-- Right link -->
    <path d="M28 16C28 20.4183 24.4183 24 20 24C17.7909 24 15.7909 23.1046 14.3431 21.6569L20 16L14.3431 10.3431C15.7909 8.8954 17.7909 8 20 8C24.4183 8 28 11.5817 28 16Z" stroke="#BD93F9" stroke-width="2.5" stroke-linecap="round" stroke-linejoin="round" transform="translate(20, 0)"/>
  </g>

  <!-- Wordmark -->
  <text x="68" y="34" font-family="JetBrains Mono, monospace" font-size="28" font-weight="700" fill="#E6E6E6">tether</text>
</svg>
